# MagicaVoxel @ Ephtracy

# group
o 

# material
mtllib stinky bone boy.mtl
usemtl palette

# normals
vn -1 0 0
vn 1 0 0
vn 0 0 1
vn 0 0 -1
vn 0 -1 0
vn 0 1 0

# texcoords
vt 0.958984 0.5
vt 0.962891 0.5
vt 0.966797 0.5
vt 0.970703 0.5
vt 0.974609 0.5

# verts
v -0.5 0.1 0.2
v -0.5 0.1 0
v -0.5 0.2 0.2
v -0.5 0.2 0
v -0.4 0 0.2
v -0.4 0 0
v -0.4 0.1 0.3
v -0.4 0.1 0.2
v -0.4 0.1 0
v -0.4 0.1 -0.1
v -0.4 0.2 0.3
v -0.4 0.2 0.2
v -0.4 0.2 0
v -0.4 0.2 -0.1
v -0.4 0.3 0.2
v -0.4 0.3 0
v -0.3 0.1 0.4
v -0.3 0.1 0.3
v -0.3 0.2 0.4
v -0.3 0.2 0.3
v -0.2 0 0.4
v -0.2 0 0.2
v -0.2 0.1 0.5
v -0.2 0.1 0.4
v -0.2 0.1 0.2
v -0.2 0.2 0.5
v -0.2 0.2 0.4
v -0.2 0.2 0.2
v -0.2 0.3 0.4
v -0.2 0.3 0.2
v -0.1 0 0
v -0.1 0 -0.1
v -0.1 0.1 0
v -0.1 0.1 -0.1
v -0.1 0.1 -0.2
v -0.1 0.2 0
v -0.1 0.2 -0.1
v -0.1 0.2 -0.2
v -0.1 0.3 0
v -0.1 0.3 -0.1
v 0 0 -0.1
v 0 0 -0.2
v 0 0.1 -0.1
v 0 0.1 -0.2
v 0 0.1 -0.3
v 0 0.2 -0.1
v 0 0.2 -0.2
v 0 0.2 -0.3
v 0 0.3 -0.1
v 0 0.3 -0.2
v 0.1 0 -0.2
v 0.1 0 -0.3
v 0.1 0.1 -0.2
v 0.1 0.1 -0.3
v 0.1 0.1 -0.4
v 0.1 0.2 -0.2
v 0.1 0.2 -0.3
v 0.1 0.2 -0.4
v 0.1 0.3 -0.2
v 0.1 0.3 -0.3
v 0.2 0 -0.3
v 0.2 0 -0.4
v 0.2 0.1 -0.3
v 0.2 0.1 -0.4
v 0.2 0.1 -0.5
v 0.2 0.2 -0.3
v 0.2 0.2 -0.4
v 0.2 0.2 -0.5
v 0.2 0.3 -0.3
v 0.2 0.3 -0.4
v 0.3 0 -0.4
v 0.3 0 -0.5
v 0.3 0.1 -0.4
v 0.3 0.1 -0.5
v 0.3 0.1 -0.6
v 0.3 0.2 -0.4
v 0.3 0.2 -0.5
v 0.3 0.3 -0.4
v 0.3 0.3 -0.5
v 0.3 0.3 -0.6
v 0.4 0 -0.5
v 0.4 0 -0.6
v 0.4 0.1 -0.5
v 0.4 0.1 -0.6
v 0.4 0.1 -0.7
v 0.4 0.2 -0.6
v 0.4 0.2 -0.7
v 0.5 0 -0.6
v 0.5 0 -0.7
v 0.5 0.1 -0.6
v 0.5 0.1 -0.7
v 0.5 0.1 -1
v 0.5 0.2 -0.6
v 0.5 0.2 -0.7
v 0.5 0.2 -1
v 0.5 0.3 -0.6
v 0.5 0.3 -0.7
v 0.6 0 -0.7
v 0.6 0 -1
v 0.6 0.1 -0.7
v 0.6 0.1 -1
v 0.6 0.1 -1.1
v 0.6 0.2 -0.7
v 0.6 0.2 -1
v 0.6 0.2 -1.1
v 0.6 0.3 -0.7
v 0.6 0.3 -1
v 0 0 0.4
v 0 0 0.1
v 0 0.1 0.5
v 0 0.1 0.4
v 0 0.1 0.1
v 0 0.2 0.5
v 0 0.2 0.4
v 0 0.2 0.1
v 0 0.3 0.4
v 0 0.3 0.1
v 0.1 0 0.1
v 0.1 0 0
v 0.1 0.1 0.4
v 0.1 0.1 0.1
v 0.1 0.1 0
v 0.1 0.2 0.4
v 0.1 0.2 0.1
v 0.1 0.2 0
v 0.1 0.3 0.1
v 0.1 0.3 0
v 0.2 0 0
v 0.2 0 -0.1
v 0.2 0.1 0.1
v 0.2 0.1 0
v 0.2 0.1 -0.1
v 0.2 0.2 0.1
v 0.2 0.2 0
v 0.2 0.2 -0.1
v 0.2 0.3 0
v 0.2 0.3 -0.1
v 0.3 0 -0.1
v 0.3 0 -0.2
v 0.3 0.1 0
v 0.3 0.1 -0.1
v 0.3 0.1 -0.2
v 0.3 0.2 0
v 0.3 0.2 -0.1
v 0.3 0.2 -0.2
v 0.3 0.3 -0.1
v 0.3 0.3 -0.2
v 0.4 0 -0.2
v 0.4 0 -0.3
v 0.4 0.1 -0.1
v 0.4 0.1 -0.2
v 0.4 0.1 -0.3
v 0.4 0.2 -0.1
v 0.4 0.2 -0.2
v 0.4 0.2 -0.3
v 0.4 0.3 -0.2
v 0.4 0.3 -0.3
v 0.5 0 -0.3
v 0.5 0 -0.4
v 0.5 0.1 -0.2
v 0.5 0.1 -0.3
v 0.5 0.1 -0.4
v 0.5 0.2 -0.2
v 0.5 0.2 -0.3
v 0.5 0.2 -0.4
v 0.5 0.3 -0.3
v 0.5 0.3 -0.4
v 0.6 0 -0.4
v 0.6 0 -0.5
v 0.6 0.1 -0.3
v 0.6 0.1 -0.4
v 0.6 0.1 -0.5
v 0.6 0.2 -0.3
v 0.6 0.2 -0.4
v 0.6 0.2 -0.5
v 0.6 0.3 -0.4
v 0.6 0.3 -0.5
v 0.7 0 -0.5
v 0.7 0 -0.6
v 0.7 0.1 -0.4
v 0.7 0.1 -0.5
v 0.7 0.1 -0.6
v 0.7 0.2 -0.4
v 0.7 0.2 -0.5
v 0.7 0.2 -0.6
v 0.7 0.3 -0.5
v 0.7 0.3 -0.6
v 0.8 0 -0.8
v 0.8 0 -0.9
v 0.8 0 -1
v 0.8 0.1 -0.8
v 0.8 0.1 -0.9
v 0.8 0.1 -1
v 0.8 0.1 -1.1
v 0.8 0.2 -0.8
v 0.8 0.2 -0.9
v 0.8 0.2 -1
v 0.8 0.2 -1.1
v 0.8 0.3 -0.8
v 0.8 0.3 -0.9
v 0.8 0.3 -1
v 0.9 0.1 -0.9
v 0.9 0.1 -1
v 0.9 0.2 -0.9
v 0.9 0.2 -1
v 1 0 -0.6
v 1 0 -0.8
v 1 0.1 -0.5
v 1 0.1 -0.6
v 1 0.1 -0.8
v 1 0.1 -0.9
v 1 0.2 -0.5
v 1 0.2 -0.6
v 1 0.2 -0.8
v 1 0.2 -0.9
v 1 0.3 -0.6
v 1 0.3 -0.8
v 1.1 0.1 -0.6
v 1.1 0.1 -0.8
v 1.1 0.2 -0.6
v 1.1 0.2 -0.8
v -0.2 0.1 0.5
v -0.2 0.2 0.5
v 0 0.1 0.5
v 0 0.2 0.5
v -0.3 0.1 0.4
v -0.3 0.2 0.4
v -0.2 0 0.4
v -0.2 0.1 0.4
v -0.2 0.2 0.4
v -0.2 0.3 0.4
v -0.1 0 0.4
v -0.1 0.1 0.4
v -0.1 0.2 0.4
v -0.1 0.3 0.4
v 0 0 0.4
v 0 0.1 0.4
v 0 0.2 0.4
v 0 0.3 0.4
v 0.1 0.1 0.4
v 0.1 0.2 0.4
v -0.4 0.1 0.3
v -0.4 0.2 0.3
v -0.3 0.1 0.3
v -0.3 0.2 0.3
v -0.5 0.1 0.2
v -0.5 0.2 0.2
v -0.4 0 0.2
v -0.4 0.1 0.2
v -0.4 0.2 0.2
v -0.4 0.3 0.2
v -0.2 0 0.2
v -0.2 0.1 0.2
v -0.2 0.2 0.2
v -0.2 0.3 0.2
v 0 0 0.1
v 0 0.1 0.1
v 0 0.2 0.1
v 0 0.3 0.1
v 0.1 0 0.1
v 0.1 0.1 0.1
v 0.1 0.2 0.1
v 0.1 0.3 0.1
v 0.2 0.1 0.1
v 0.2 0.2 0.1
v 0.1 0 0
v 0.1 0.1 0
v 0.1 0.2 0
v 0.1 0.3 0
v 0.2 0 0
v 0.2 0.1 0
v 0.2 0.2 0
v 0.2 0.3 0
v 0.3 0.1 0
v 0.3 0.2 0
v 0.2 0 -0.1
v 0.2 0.1 -0.1
v 0.2 0.2 -0.1
v 0.2 0.3 -0.1
v 0.3 0 -0.1
v 0.3 0.1 -0.1
v 0.3 0.2 -0.1
v 0.3 0.3 -0.1
v 0.4 0.1 -0.1
v 0.4 0.2 -0.1
v 0.3 0 -0.2
v 0.3 0.1 -0.2
v 0.3 0.2 -0.2
v 0.3 0.3 -0.2
v 0.4 0 -0.2
v 0.4 0.1 -0.2
v 0.4 0.2 -0.2
v 0.4 0.3 -0.2
v 0.5 0.1 -0.2
v 0.5 0.2 -0.2
v 0.4 0 -0.3
v 0.4 0.1 -0.3
v 0.4 0.2 -0.3
v 0.4 0.3 -0.3
v 0.5 0 -0.3
v 0.5 0.1 -0.3
v 0.5 0.2 -0.3
v 0.5 0.3 -0.3
v 0.6 0.1 -0.3
v 0.6 0.2 -0.3
v 0.5 0 -0.4
v 0.5 0.1 -0.4
v 0.5 0.2 -0.4
v 0.5 0.3 -0.4
v 0.6 0 -0.4
v 0.6 0.1 -0.4
v 0.6 0.2 -0.4
v 0.6 0.3 -0.4
v 0.7 0.1 -0.4
v 0.7 0.2 -0.4
v 0.6 0 -0.5
v 0.6 0.1 -0.5
v 0.6 0.2 -0.5
v 0.6 0.3 -0.5
v 0.7 0 -0.5
v 0.7 0.1 -0.5
v 0.7 0.2 -0.5
v 0.7 0.3 -0.5
v 1 0.1 -0.5
v 1 0.2 -0.5
v 0.7 0 -0.6
v 0.7 0.1 -0.6
v 0.7 0.2 -0.6
v 0.7 0.3 -0.6
v 0.8 0 -0.6
v 0.8 0.1 -0.6
v 0.8 0.2 -0.6
v 0.8 0.3 -0.6
v 1 0 -0.6
v 1 0.1 -0.6
v 1 0.2 -0.6
v 1 0.3 -0.6
v 1.1 0.1 -0.6
v 1.1 0.2 -0.6
v -0.5 0.1 0
v -0.5 0.2 0
v -0.4 0 0
v -0.4 0.1 0
v -0.4 0.2 0
v -0.4 0.3 0
v -0.1 0 0
v -0.1 0.1 0
v -0.1 0.2 0
v -0.1 0.3 0
v -0.4 0.1 -0.1
v -0.4 0.2 -0.1
v -0.1 0 -0.1
v -0.1 0.1 -0.1
v -0.1 0.2 -0.1
v -0.1 0.3 -0.1
v 0 0 -0.1
v 0 0.1 -0.1
v 0 0.2 -0.1
v 0 0.3 -0.1
v -0.1 0.1 -0.2
v -0.1 0.2 -0.2
v 0 0 -0.2
v 0 0.1 -0.2
v 0 0.2 -0.2
v 0 0.3 -0.2
v 0.1 0 -0.2
v 0.1 0.1 -0.2
v 0.1 0.2 -0.2
v 0.1 0.3 -0.2
v 0 0.1 -0.3
v 0 0.2 -0.3
v 0.1 0 -0.3
v 0.1 0.1 -0.3
v 0.1 0.2 -0.3
v 0.1 0.3 -0.3
v 0.2 0 -0.3
v 0.2 0.1 -0.3
v 0.2 0.2 -0.3
v 0.2 0.3 -0.3
v 0.1 0.1 -0.4
v 0.1 0.2 -0.4
v 0.2 0 -0.4
v 0.2 0.1 -0.4
v 0.2 0.2 -0.4
v 0.2 0.3 -0.4
v 0.3 0 -0.4
v 0.3 0.1 -0.4
v 0.3 0.2 -0.4
v 0.3 0.3 -0.4
v 0.2 0.1 -0.5
v 0.2 0.2 -0.5
v 0.3 0 -0.5
v 0.3 0.1 -0.5
v 0.3 0.2 -0.5
v 0.4 0 -0.5
v 0.4 0.1 -0.5
v 0.3 0.1 -0.6
v 0.3 0.3 -0.6
v 0.4 0 -0.6
v 0.4 0.1 -0.6
v 0.4 0.2 -0.6
v 0.4 0.3 -0.6
v 0.5 0 -0.6
v 0.5 0.1 -0.6
v 0.5 0.2 -0.6
v 0.5 0.3 -0.6
v 0.4 0.1 -0.7
v 0.4 0.2 -0.7
v 0.5 0 -0.7
v 0.5 0.1 -0.7
v 0.5 0.2 -0.7
v 0.5 0.3 -0.7
v 0.6 0 -0.7
v 0.6 0.1 -0.7
v 0.6 0.2 -0.7
v 0.6 0.3 -0.7
v 0.8 0 -0.8
v 0.8 0.1 -0.8
v 0.8 0.2 -0.8
v 0.8 0.3 -0.8
v 0.9 0 -0.8
v 0.9 0.1 -0.8
v 0.9 0.2 -0.8
v 0.9 0.3 -0.8
v 1 0 -0.8
v 1 0.1 -0.8
v 1 0.2 -0.8
v 1 0.3 -0.8
v 1.1 0.1 -0.8
v 1.1 0.2 -0.8
v 0.9 0.1 -0.9
v 0.9 0.2 -0.9
v 1 0.1 -0.9
v 1 0.2 -0.9
v 0.5 0.1 -1
v 0.5 0.2 -1
v 0.6 0 -1
v 0.6 0.1 -1
v 0.6 0.2 -1
v 0.6 0.3 -1
v 0.8 0 -1
v 0.8 0.1 -1
v 0.8 0.2 -1
v 0.8 0.3 -1
v 0.9 0.1 -1
v 0.9 0.2 -1
v 0.6 0.1 -1.1
v 0.6 0.2 -1.1
v 0.8 0.1 -1.1
v 0.8 0.2 -1.1
v -0.2 0 0.4
v -0.1 0 0.4
v 0 0 0.4
v -0.4 0 0.2
v -0.2 0 0.2
v -0.1 0 0.2
v -0.2 0 0.1
v -0.1 0 0.1
v 0 0 0.1
v 0.1 0 0.1
v -0.4 0 0
v -0.1 0 0
v 0 0 0
v 0.1 0 0
v 0.2 0 0
v -0.1 0 -0.1
v 0 0 -0.1
v 0.1 0 -0.1
v 0.2 0 -0.1
v 0.3 0 -0.1
v 0 0 -0.2
v 0.1 0 -0.2
v 0.2 0 -0.2
v 0.3 0 -0.2
v 0.4 0 -0.2
v 0.1 0 -0.3
v 0.2 0 -0.3
v 0.3 0 -0.3
v 0.4 0 -0.3
v 0.5 0 -0.3
v 0.2 0 -0.4
v 0.3 0 -0.4
v 0.4 0 -0.4
v 0.5 0 -0.4
v 0.6 0 -0.4
v 0.3 0 -0.5
v 0.4 0 -0.5
v 0.5 0 -0.5
v 0.6 0 -0.5
v 0.7 0 -0.5
v 0.4 0 -0.6
v 0.5 0 -0.6
v 0.6 0 -0.6
v 0.7 0 -0.6
v 0.8 0 -0.6
v 1 0 -0.6
v 0.5 0 -0.7
v 0.6 0 -0.7
v 0.7 0 -0.7
v 0.8 0 -0.7
v 0.9 0 -0.7
v 0.8 0 -0.8
v 0.9 0 -0.8
v 1 0 -0.8
v 0.7 0 -0.9
v 0.8 0 -0.9
v 0.6 0 -1
v 0.8 0 -1
v -0.2 0.1 0.5
v 0 0.1 0.5
v -0.3 0.1 0.4
v -0.2 0.1 0.4
v -0.1 0.1 0.4
v 0 0.1 0.4
v 0.1 0.1 0.4
v -0.4 0.1 0.3
v -0.3 0.1 0.3
v -0.5 0.1 0.2
v -0.4 0.1 0.2
v -0.2 0.1 0.2
v 0 0.1 0.1
v 0.1 0.1 0.1
v 0.2 0.1 0.1
v -0.5 0.1 0
v -0.4 0.1 0
v -0.1 0.1 0
v 0.1 0.1 0
v 0.2 0.1 0
v 0.3 0.1 0
v -0.4 0.1 -0.1
v -0.1 0.1 -0.1
v 0 0.1 -0.1
v 0.2 0.1 -0.1
v 0.3 0.1 -0.1
v 0.4 0.1 -0.1
v -0.1 0.1 -0.2
v 0 0.1 -0.2
v 0.1 0.1 -0.2
v 0.3 0.1 -0.2
v 0.4 0.1 -0.2
v 0.5 0.1 -0.2
v 0 0.1 -0.3
v 0.1 0.1 -0.3
v 0.2 0.1 -0.3
v 0.4 0.1 -0.3
v 0.5 0.1 -0.3
v 0.6 0.1 -0.3
v 0.1 0.1 -0.4
v 0.2 0.1 -0.4
v 0.3 0.1 -0.4
v 0.5 0.1 -0.4
v 0.6 0.1 -0.4
v 0.7 0.1 -0.4
v 0.2 0.1 -0.5
v 0.3 0.1 -0.5
v 0.4 0.1 -0.5
v 0.6 0.1 -0.5
v 0.7 0.1 -0.5
v 1 0.1 -0.5
v 0.3 0.1 -0.6
v 0.4 0.1 -0.6
v 0.5 0.1 -0.6
v 0.7 0.1 -0.6
v 0.8 0.1 -0.6
v 1 0.1 -0.6
v 1.1 0.1 -0.6
v 0.4 0.1 -0.7
v 0.5 0.1 -0.7
v 0.6 0.1 -0.7
v 0.8 0.1 -0.8
v 0.9 0.1 -0.8
v 1 0.1 -0.8
v 1.1 0.1 -0.8
v 0.8 0.1 -0.9
v 0.9 0.1 -0.9
v 1 0.1 -0.9
v 0.5 0.1 -1
v 0.6 0.1 -1
v 0.8 0.1 -1
v 0.9 0.1 -1
v 0.6 0.1 -1.1
v 0.8 0.1 -1.1
v -0.2 0.2 0.5
v 0 0.2 0.5
v -0.3 0.2 0.4
v -0.2 0.2 0.4
v -0.1 0.2 0.4
v 0 0.2 0.4
v 0.1 0.2 0.4
v -0.4 0.2 0.3
v -0.3 0.2 0.3
v -0.5 0.2 0.2
v -0.4 0.2 0.2
v -0.2 0.2 0.2
v 0 0.2 0.1
v 0.1 0.2 0.1
v 0.2 0.2 0.1
v -0.5 0.2 0
v -0.4 0.2 0
v -0.1 0.2 0
v 0.1 0.2 0
v 0.2 0.2 0
v 0.3 0.2 0
v -0.4 0.2 -0.1
v -0.1 0.2 -0.1
v 0 0.2 -0.1
v 0.2 0.2 -0.1
v 0.3 0.2 -0.1
v 0.4 0.2 -0.1
v -0.1 0.2 -0.2
v 0 0.2 -0.2
v 0.1 0.2 -0.2
v 0.3 0.2 -0.2
v 0.4 0.2 -0.2
v 0.5 0.2 -0.2
v 0 0.2 -0.3
v 0.1 0.2 -0.3
v 0.2 0.2 -0.3
v 0.4 0.2 -0.3
v 0.5 0.2 -0.3
v 0.6 0.2 -0.3
v 0.1 0.2 -0.4
v 0.2 0.2 -0.4
v 0.3 0.2 -0.4
v 0.5 0.2 -0.4
v 0.6 0.2 -0.4
v 0.7 0.2 -0.4
v 0.2 0.2 -0.5
v 0.3 0.2 -0.5
v 0.6 0.2 -0.5
v 0.7 0.2 -0.5
v 1 0.2 -0.5
v 0.4 0.2 -0.6
v 0.5 0.2 -0.6
v 0.7 0.2 -0.6
v 0.8 0.2 -0.6
v 1 0.2 -0.6
v 1.1 0.2 -0.6
v 0.4 0.2 -0.7
v 0.5 0.2 -0.7
v 0.6 0.2 -0.7
v 0.8 0.2 -0.8
v 0.9 0.2 -0.8
v 1 0.2 -0.8
v 1.1 0.2 -0.8
v 0.8 0.2 -0.9
v 0.9 0.2 -0.9
v 1 0.2 -0.9
v 0.5 0.2 -1
v 0.6 0.2 -1
v 0.8 0.2 -1
v 0.9 0.2 -1
v 0.6 0.2 -1.1
v 0.8 0.2 -1.1
v -0.2 0.3 0.4
v -0.1 0.3 0.4
v 0 0.3 0.4
v -0.4 0.3 0.2
v -0.2 0.3 0.2
v -0.1 0.3 0.2
v -0.2 0.3 0.1
v -0.1 0.3 0.1
v 0 0.3 0.1
v 0.1 0.3 0.1
v -0.4 0.3 0
v -0.1 0.3 0
v 0 0.3 0
v 0.1 0.3 0
v 0.2 0.3 0
v -0.1 0.3 -0.1
v 0 0.3 -0.1
v 0.1 0.3 -0.1
v 0.2 0.3 -0.1
v 0.3 0.3 -0.1
v 0 0.3 -0.2
v 0.1 0.3 -0.2
v 0.2 0.3 -0.2
v 0.3 0.3 -0.2
v 0.4 0.3 -0.2
v 0.1 0.3 -0.3
v 0.2 0.3 -0.3
v 0.3 0.3 -0.3
v 0.4 0.3 -0.3
v 0.5 0.3 -0.3
v 0.2 0.3 -0.4
v 0.3 0.3 -0.4
v 0.4 0.3 -0.4
v 0.5 0.3 -0.4
v 0.6 0.3 -0.4
v 0.3 0.3 -0.5
v 0.4 0.3 -0.5
v 0.5 0.3 -0.5
v 0.6 0.3 -0.5
v 0.7 0.3 -0.5
v 0.3 0.3 -0.6
v 0.4 0.3 -0.6
v 0.5 0.3 -0.6
v 0.6 0.3 -0.6
v 0.7 0.3 -0.6
v 0.8 0.3 -0.6
v 1 0.3 -0.6
v 0.5 0.3 -0.7
v 0.6 0.3 -0.7
v 0.7 0.3 -0.7
v 0.8 0.3 -0.7
v 0.9 0.3 -0.7
v 0.8 0.3 -0.8
v 0.9 0.3 -0.8
v 1 0.3 -0.8
v 0.7 0.3 -0.9
v 0.8 0.3 -0.9
v 0.6 0.3 -1
v 0.8 0.3 -1

# faces
f 3/5/1 2/5/1 1/5/1
f 4/5/1 2/5/1 3/5/1
f 8/3/1 6/3/1 5/3/1
f 9/3/1 6/3/1 8/3/1
f 11/4/1 8/4/1 7/4/1
f 12/4/1 8/4/1 11/4/1
f 13/5/1 10/5/1 9/5/1
f 14/5/1 10/5/1 13/5/1
f 15/3/1 13/3/1 12/3/1
f 16/3/1 13/3/1 15/3/1
f 19/4/1 18/4/1 17/4/1
f 20/4/1 18/4/1 19/4/1
f 24/3/1 22/3/1 21/3/1
f 25/3/1 22/3/1 24/3/1
f 26/5/1 24/5/1 23/5/1
f 27/5/1 24/5/1 26/5/1
f 29/3/1 28/3/1 27/3/1
f 30/3/1 28/3/1 29/3/1
f 33/3/1 32/3/1 31/3/1
f 34/3/1 32/3/1 33/3/1
f 37/5/1 35/5/1 34/5/1
f 38/5/1 35/5/1 37/5/1
f 39/3/1 37/3/1 36/3/1
f 40/3/1 37/3/1 39/3/1
f 43/3/1 42/3/1 41/3/1
f 44/3/1 42/3/1 43/3/1
f 47/5/1 45/5/1 44/5/1
f 48/5/1 45/5/1 47/5/1
f 49/3/1 47/3/1 46/3/1
f 50/3/1 47/3/1 49/3/1
f 53/3/1 52/3/1 51/3/1
f 54/3/1 52/3/1 53/3/1
f 57/5/1 55/5/1 54/5/1
f 58/5/1 55/5/1 57/5/1
f 59/3/1 57/3/1 56/3/1
f 60/3/1 57/3/1 59/3/1
f 63/3/1 62/3/1 61/3/1
f 64/3/1 62/3/1 63/3/1
f 67/5/1 65/5/1 64/5/1
f 68/5/1 65/5/1 67/5/1
f 69/3/1 67/3/1 66/3/1
f 70/3/1 67/3/1 69/3/1
f 73/3/1 72/3/1 71/3/1
f 74/3/1 72/3/1 73/3/1
f 77/5/1 75/5/1 74/5/1
f 78/3/1 77/3/1 76/3/1
f 79/5/1 75/5/1 77/5/1
f 79/3/1 77/3/1 78/3/1
f 80/5/1 75/5/1 79/5/1
f 83/3/1 82/3/1 81/3/1
f 84/3/1 82/3/1 83/3/1
f 86/5/1 85/5/1 84/5/1
f 87/5/1 85/5/1 86/5/1
f 90/3/1 89/3/1 88/3/1
f 91/3/1 89/3/1 90/3/1
f 94/5/1 92/5/1 91/5/1
f 95/5/1 92/5/1 94/5/1
f 96/3/1 94/3/1 93/3/1
f 97/3/1 94/3/1 96/3/1
f 100/3/1 99/3/1 98/3/1
f 101/3/1 99/3/1 100/3/1
f 104/5/1 102/5/1 101/5/1
f 105/5/1 102/5/1 104/5/1
f 106/3/1 104/3/1 103/3/1
f 107/3/1 104/3/1 106/3/1
f 108/1/2 109/1/2 111/1/2
f 111/1/2 109/1/2 112/1/2
f 110/5/2 111/5/2 113/5/2
f 113/5/2 111/5/2 114/5/2
f 114/1/2 115/1/2 116/1/2
f 116/1/2 115/1/2 117/1/2
f 118/2/2 119/2/2 121/2/2
f 121/2/2 119/2/2 122/2/2
f 120/5/2 121/5/2 123/5/2
f 123/5/2 121/5/2 124/5/2
f 124/2/2 125/2/2 126/2/2
f 126/2/2 125/2/2 127/2/2
f 128/1/2 129/1/2 131/1/2
f 131/1/2 129/1/2 132/1/2
f 130/5/2 131/5/2 133/5/2
f 133/5/2 131/5/2 134/5/2
f 134/1/2 135/1/2 136/1/2
f 136/1/2 135/1/2 137/1/2
f 138/2/2 139/2/2 141/2/2
f 141/2/2 139/2/2 142/2/2
f 140/5/2 141/5/2 143/5/2
f 143/5/2 141/5/2 144/5/2
f 144/2/2 145/2/2 146/2/2
f 146/2/2 145/2/2 147/2/2
f 148/2/2 149/2/2 151/2/2
f 151/2/2 149/2/2 152/2/2
f 150/5/2 151/5/2 153/5/2
f 153/5/2 151/5/2 154/5/2
f 154/2/2 155/2/2 156/2/2
f 156/2/2 155/2/2 157/2/2
f 158/1/2 159/1/2 161/1/2
f 161/1/2 159/1/2 162/1/2
f 160/5/2 161/5/2 163/5/2
f 163/5/2 161/5/2 164/5/2
f 164/1/2 165/1/2 166/1/2
f 166/1/2 165/1/2 167/1/2
f 168/2/2 169/2/2 171/2/2
f 171/2/2 169/2/2 172/2/2
f 170/5/2 171/5/2 173/5/2
f 173/5/2 171/5/2 174/5/2
f 174/2/2 175/2/2 176/2/2
f 176/2/2 175/2/2 177/2/2
f 178/1/2 179/1/2 181/1/2
f 181/1/2 179/1/2 182/1/2
f 180/5/2 181/5/2 183/5/2
f 183/5/2 181/5/2 184/5/2
f 184/1/2 185/1/2 186/1/2
f 186/1/2 185/1/2 187/1/2
f 188/2/2 189/2/2 191/2/2
f 189/3/2 190/3/2 192/3/2
f 191/2/2 189/2/2 192/2/2
f 192/3/2 190/3/2 193/3/2
f 193/5/2 194/5/2 197/5/2
f 197/5/2 194/5/2 198/5/2
f 195/2/2 196/2/2 199/2/2
f 196/3/2 197/3/2 200/3/2
f 199/2/2 196/2/2 200/2/2
f 200/3/2 197/3/2 201/3/2
f 202/5/2 203/5/2 204/5/2
f 204/5/2 203/5/2 205/5/2
f 206/1/2 207/1/2 209/1/2
f 209/1/2 207/1/2 210/1/2
f 208/5/2 209/5/2 212/5/2
f 212/5/2 209/5/2 213/5/2
f 210/5/2 211/5/2 214/5/2
f 214/5/2 211/5/2 215/5/2
f 213/1/2 214/1/2 216/1/2
f 216/1/2 214/1/2 217/1/2
f 218/5/2 219/5/2 220/5/2
f 220/5/2 219/5/2 221/5/2
f 224/5/3 223/5/3 222/5/3
f 225/5/3 223/5/3 224/5/3
f 229/4/3 227/4/3 226/4/3
f 230/4/3 227/4/3 229/4/3
f 232/3/3 229/3/3 228/3/3
f 233/3/3 229/3/3 232/3/3
f 234/3/3 231/3/3 230/3/3
f 235/3/3 231/3/3 234/3/3
f 236/1/3 233/1/3 232/1/3
f 237/1/3 233/1/3 236/1/3
f 238/1/3 235/1/3 234/1/3
f 239/1/3 235/1/3 238/1/3
f 240/5/3 238/5/3 237/5/3
f 241/5/3 238/5/3 240/5/3
f 244/4/3 243/4/3 242/4/3
f 245/4/3 243/4/3 244/4/3
f 249/5/3 247/5/3 246/5/3
f 250/5/3 247/5/3 249/5/3
f 252/3/3 249/3/3 248/3/3
f 253/3/3 249/3/3 252/3/3
f 254/3/3 251/3/3 250/3/3
f 255/3/3 251/3/3 254/3/3
f 260/2/3 257/2/3 256/2/3
f 261/2/3 257/2/3 260/2/3
f 262/2/3 259/2/3 258/2/3
f 263/2/3 259/2/3 262/2/3
f 264/5/3 262/5/3 261/5/3
f 265/5/3 262/5/3 264/5/3
f 270/1/3 267/1/3 266/1/3
f 271/1/3 267/1/3 270/1/3
f 272/1/3 269/1/3 268/1/3
f 273/1/3 269/1/3 272/1/3
f 274/5/3 272/5/3 271/5/3
f 275/5/3 272/5/3 274/5/3
f 280/2/3 277/2/3 276/2/3
f 281/2/3 277/2/3 280/2/3
f 282/2/3 279/2/3 278/2/3
f 283/2/3 279/2/3 282/2/3
f 284/5/3 282/5/3 281/5/3
f 285/5/3 282/5/3 284/5/3
f 290/2/3 287/2/3 286/2/3
f 291/2/3 287/2/3 290/2/3
f 292/2/3 289/2/3 288/2/3
f 293/2/3 289/2/3 292/2/3
f 294/5/3 292/5/3 291/5/3
f 295/5/3 292/5/3 294/5/3
f 300/1/3 297/1/3 296/1/3
f 301/1/3 297/1/3 300/1/3
f 302/1/3 299/1/3 298/1/3
f 303/1/3 299/1/3 302/1/3
f 304/5/3 302/5/3 301/5/3
f 305/5/3 302/5/3 304/5/3
f 310/2/3 307/2/3 306/2/3
f 311/2/3 307/2/3 310/2/3
f 312/2/3 309/2/3 308/2/3
f 313/2/3 309/2/3 312/2/3
f 314/5/3 312/5/3 311/5/3
f 315/5/3 312/5/3 314/5/3
f 320/1/3 317/1/3 316/1/3
f 321/1/3 317/1/3 320/1/3
f 322/1/3 319/1/3 318/1/3
f 323/1/3 319/1/3 322/1/3
f 324/5/3 322/5/3 321/5/3
f 325/5/3 322/5/3 324/5/3
f 330/2/3 327/2/3 326/2/3
f 331/2/3 327/2/3 330/2/3
f 332/2/3 329/2/3 328/2/3
f 333/2/3 329/2/3 332/2/3
f 334/1/3 331/1/3 330/1/3
f 335/1/3 331/1/3 334/1/3
f 336/1/3 333/1/3 332/1/3
f 337/1/3 333/1/3 336/1/3
f 338/5/3 336/5/3 335/5/3
f 339/5/3 336/5/3 338/5/3
f 340/5/4 341/5/4 343/5/4
f 343/5/4 341/5/4 344/5/4
f 342/3/4 343/3/4 346/3/4
f 346/3/4 343/3/4 347/3/4
f 344/3/4 345/3/4 348/3/4
f 348/3/4 345/3/4 349/3/4
f 350/5/4 351/5/4 353/5/4
f 353/5/4 351/5/4 354/5/4
f 352/3/4 353/3/4 356/3/4
f 356/3/4 353/3/4 357/3/4
f 354/3/4 355/3/4 358/3/4
f 358/3/4 355/3/4 359/3/4
f 360/5/4 361/5/4 363/5/4
f 363/5/4 361/5/4 364/5/4
f 362/3/4 363/3/4 366/3/4
f 366/3/4 363/3/4 367/3/4
f 364/3/4 365/3/4 368/3/4
f 368/3/4 365/3/4 369/3/4
f 370/5/4 371/5/4 373/5/4
f 373/5/4 371/5/4 374/5/4
f 372/3/4 373/3/4 376/3/4
f 376/3/4 373/3/4 377/3/4
f 374/3/4 375/3/4 378/3/4
f 378/3/4 375/3/4 379/3/4
f 380/5/4 381/5/4 383/5/4
f 383/5/4 381/5/4 384/5/4
f 382/3/4 383/3/4 386/3/4
f 386/3/4 383/3/4 387/3/4
f 384/3/4 385/3/4 388/3/4
f 388/3/4 385/3/4 389/3/4
f 390/5/4 391/5/4 393/5/4
f 393/5/4 391/5/4 394/5/4
f 392/3/4 393/3/4 395/3/4
f 395/3/4 393/3/4 396/3/4
f 397/5/4 398/5/4 400/5/4
f 400/5/4 398/5/4 401/5/4
f 401/5/4 398/5/4 402/5/4
f 399/3/4 400/3/4 403/3/4
f 403/3/4 400/3/4 404/3/4
f 401/3/4 402/3/4 405/3/4
f 405/3/4 402/3/4 406/3/4
f 407/5/4 408/5/4 410/5/4
f 410/5/4 408/5/4 411/5/4
f 409/3/4 410/3/4 413/3/4
f 413/3/4 410/3/4 414/3/4
f 411/3/4 412/3/4 415/3/4
f 415/3/4 412/3/4 416/3/4
f 417/2/4 418/2/4 421/2/4
f 421/2/4 418/2/4 422/2/4
f 419/2/4 420/2/4 423/2/4
f 423/2/4 420/2/4 424/2/4
f 421/1/4 422/1/4 425/1/4
f 425/1/4 422/1/4 426/1/4
f 423/1/4 424/1/4 427/1/4
f 427/1/4 424/1/4 428/1/4
f 426/5/4 427/5/4 429/5/4
f 429/5/4 427/5/4 430/5/4
f 431/5/4 432/5/4 433/5/4
f 433/5/4 432/5/4 434/5/4
f 435/5/4 436/5/4 438/5/4
f 438/5/4 436/5/4 439/5/4
f 437/3/4 438/3/4 441/3/4
f 441/3/4 438/3/4 442/3/4
f 439/3/4 440/3/4 443/3/4
f 443/3/4 440/3/4 444/3/4
f 442/5/4 443/5/4 445/5/4
f 445/5/4 443/5/4 446/5/4
f 447/5/4 448/5/4 449/5/4
f 449/5/4 448/5/4 450/5/4
f 455/3/5 452/3/5 451/3/5
f 456/1/5 453/1/5 452/1/5
f 456/3/5 452/3/5 455/3/5
f 457/3/5 455/3/5 454/3/5
f 457/1/5 456/1/5 455/1/5
f 458/1/5 453/1/5 456/1/5
f 458/1/5 456/1/5 457/1/5
f 459/1/5 453/1/5 458/1/5
f 461/3/5 457/3/5 454/3/5
f 461/3/5 458/3/5 457/3/5
f 462/2/5 460/2/5 459/2/5
f 462/3/5 458/3/5 461/3/5
f 462/2/5 459/2/5 458/2/5
f 463/2/5 460/2/5 462/2/5
f 464/2/5 460/2/5 463/2/5
f 466/3/5 463/3/5 462/3/5
f 467/2/5 464/2/5 463/2/5
f 467/3/5 463/3/5 466/3/5
f 468/1/5 465/1/5 464/1/5
f 468/2/5 464/2/5 467/2/5
f 469/1/5 465/1/5 468/1/5
f 471/3/5 468/3/5 467/3/5
f 472/2/5 470/2/5 469/2/5
f 472/3/5 468/3/5 471/3/5
f 472/2/5 469/2/5 468/2/5
f 473/2/5 470/2/5 472/2/5
f 474/2/5 470/2/5 473/2/5
f 476/3/5 473/3/5 472/3/5
f 477/2/5 475/2/5 474/2/5
f 477/3/5 473/3/5 476/3/5
f 477/2/5 474/2/5 473/2/5
f 478/2/5 475/2/5 477/2/5
f 479/2/5 475/2/5 478/2/5
f 481/3/5 478/3/5 477/3/5
f 482/2/5 479/2/5 478/2/5
f 482/3/5 478/3/5 481/3/5
f 483/1/5 480/1/5 479/1/5
f 483/2/5 479/2/5 482/2/5
f 484/1/5 480/1/5 483/1/5
f 486/3/5 483/3/5 482/3/5
f 487/2/5 485/2/5 484/2/5
f 487/3/5 483/3/5 486/3/5
f 487/2/5 484/2/5 483/2/5
f 488/2/5 485/2/5 487/2/5
f 489/2/5 485/2/5 488/2/5
f 491/3/5 488/3/5 487/3/5
f 492/2/5 489/2/5 488/2/5
f 492/3/5 488/3/5 491/3/5
f 493/1/5 490/1/5 489/1/5
f 493/2/5 489/2/5 492/2/5
f 494/1/5 490/1/5 493/1/5
f 497/3/5 493/3/5 492/3/5
f 498/2/5 495/2/5 494/2/5
f 498/3/5 493/3/5 497/3/5
f 498/2/5 494/2/5 493/2/5
f 499/2/5 495/2/5 498/2/5
f 500/1/5 496/1/5 495/1/5
f 500/2/5 495/2/5 499/2/5
f 501/1/5 496/1/5 500/1/5
f 502/2/5 500/2/5 499/2/5
f 502/2/5 501/2/5 500/2/5
f 503/1/5 496/1/5 501/1/5
f 503/2/5 501/2/5 502/2/5
f 504/1/5 496/1/5 503/1/5
f 505/3/5 499/3/5 498/3/5
f 505/2/5 502/2/5 499/2/5
f 506/2/5 502/2/5 505/2/5
f 507/3/5 505/3/5 498/3/5
f 507/3/5 506/3/5 505/3/5
f 508/3/5 506/3/5 507/3/5
f 512/5/5 510/5/5 509/5/5
f 513/5/5 510/5/5 512/5/5
f 514/5/5 510/5/5 513/5/5
f 517/4/5 512/4/5 511/4/5
f 519/4/5 517/4/5 516/4/5
f 520/4/5 512/4/5 517/4/5
f 520/4/5 517/4/5 519/4/5
f 521/5/5 515/5/5 514/5/5
f 522/5/5 515/5/5 521/5/5
f 524/5/5 519/5/5 518/5/5
f 525/5/5 519/5/5 524/5/5
f 527/5/5 523/5/5 522/5/5
f 528/5/5 523/5/5 527/5/5
f 530/5/5 526/5/5 525/5/5
f 531/5/5 526/5/5 530/5/5
f 533/5/5 529/5/5 528/5/5
f 534/5/5 529/5/5 533/5/5
f 536/5/5 532/5/5 531/5/5
f 537/5/5 532/5/5 536/5/5
f 539/5/5 535/5/5 534/5/5
f 540/5/5 535/5/5 539/5/5
f 542/5/5 538/5/5 537/5/5
f 543/5/5 538/5/5 542/5/5
f 545/5/5 541/5/5 540/5/5
f 546/5/5 541/5/5 545/5/5
f 548/5/5 544/5/5 543/5/5
f 549/5/5 544/5/5 548/5/5
f 551/5/5 547/5/5 546/5/5
f 552/5/5 547/5/5 551/5/5
f 554/5/5 550/5/5 549/5/5
f 555/5/5 550/5/5 554/5/5
f 557/5/5 553/5/5 552/5/5
f 558/5/5 553/5/5 557/5/5
f 560/5/5 556/5/5 555/5/5
f 561/5/5 556/5/5 560/5/5
f 563/5/5 559/5/5 558/5/5
f 564/5/5 559/5/5 563/5/5
f 565/5/5 559/5/5 564/5/5
f 567/5/5 562/5/5 561/5/5
f 568/5/5 562/5/5 567/5/5
f 572/5/5 566/5/5 565/5/5
f 573/5/5 566/5/5 572/5/5
f 574/5/5 571/5/5 570/5/5
f 574/5/5 572/5/5 571/5/5
f 575/5/5 572/5/5 574/5/5
f 576/5/5 572/5/5 575/5/5
f 577/5/5 569/5/5 568/5/5
f 578/5/5 569/5/5 577/5/5
f 579/5/5 575/5/5 574/5/5
f 580/5/5 575/5/5 579/5/5
f 581/5/5 579/5/5 578/5/5
f 582/5/5 579/5/5 581/5/5
f 583/5/6 584/5/6 586/5/6
f 586/5/6 584/5/6 587/5/6
f 587/5/6 584/5/6 588/5/6
f 585/4/6 586/4/6 591/4/6
f 590/4/6 591/4/6 593/4/6
f 591/4/6 586/4/6 594/4/6
f 593/4/6 591/4/6 594/4/6
f 588/5/6 589/5/6 595/5/6
f 595/5/6 589/5/6 596/5/6
f 592/5/6 593/5/6 598/5/6
f 598/5/6 593/5/6 599/5/6
f 596/5/6 597/5/6 601/5/6
f 601/5/6 597/5/6 602/5/6
f 599/5/6 600/5/6 604/5/6
f 604/5/6 600/5/6 605/5/6
f 602/5/6 603/5/6 607/5/6
f 607/5/6 603/5/6 608/5/6
f 605/5/6 606/5/6 610/5/6
f 610/5/6 606/5/6 611/5/6
f 608/5/6 609/5/6 613/5/6
f 613/5/6 609/5/6 614/5/6
f 611/5/6 612/5/6 616/5/6
f 616/5/6 612/5/6 617/5/6
f 614/5/6 615/5/6 619/5/6
f 619/5/6 615/5/6 620/5/6
f 617/5/6 618/5/6 622/5/6
f 622/5/6 618/5/6 623/5/6
f 620/5/6 621/5/6 625/5/6
f 625/5/6 621/5/6 626/5/6
f 623/5/6 624/5/6 628/5/6
f 628/5/6 624/5/6 629/5/6
f 626/5/6 627/5/6 630/5/6
f 630/5/6 627/5/6 631/5/6
f 631/5/6 632/5/6 635/5/6
f 635/5/6 632/5/6 636/5/6
f 636/5/6 632/5/6 637/5/6
f 633/5/6 634/5/6 639/5/6
f 639/5/6 634/5/6 640/5/6
f 637/5/6 638/5/6 644/5/6
f 644/5/6 638/5/6 645/5/6
f 642/5/6 643/5/6 646/5/6
f 643/5/6 644/5/6 646/5/6
f 646/5/6 644/5/6 647/5/6
f 647/5/6 644/5/6 648/5/6
f 640/5/6 641/5/6 649/5/6
f 649/5/6 641/5/6 650/5/6
f 646/5/6 647/5/6 651/5/6
f 651/5/6 647/5/6 652/5/6
f 650/5/6 651/5/6 653/5/6
f 653/5/6 651/5/6 654/5/6
f 655/3/6 656/3/6 659/3/6
f 656/1/6 657/1/6 660/1/6
f 659/3/6 656/3/6 660/3/6
f 658/3/6 659/3/6 661/3/6
f 659/1/6 660/1/6 661/1/6
f 660/1/6 657/1/6 662/1/6
f 661/1/6 660/1/6 662/1/6
f 662/1/6 657/1/6 663/1/6
f 658/3/6 661/3/6 665/3/6
f 661/3/6 662/3/6 665/3/6
f 663/2/6 664/2/6 666/2/6
f 665/3/6 662/3/6 666/3/6
f 662/2/6 663/2/6 666/2/6
f 666/2/6 664/2/6 667/2/6
f 667/2/6 664/2/6 668/2/6
f 666/3/6 667/3/6 670/3/6
f 667/2/6 668/2/6 671/2/6
f 670/3/6 667/3/6 671/3/6
f 668/1/6 669/1/6 672/1/6
f 671/2/6 668/2/6 672/2/6
f 672/1/6 669/1/6 673/1/6
f 671/3/6 672/3/6 675/3/6
f 673/2/6 674/2/6 676/2/6
f 675/3/6 672/3/6 676/3/6
f 672/2/6 673/2/6 676/2/6
f 676/2/6 674/2/6 677/2/6
f 677/2/6 674/2/6 678/2/6
f 676/3/6 677/3/6 680/3/6
f 678/2/6 679/2/6 681/2/6
f 680/3/6 677/3/6 681/3/6
f 677/2/6 678/2/6 681/2/6
f 681/2/6 679/2/6 682/2/6
f 682/2/6 679/2/6 683/2/6
f 681/3/6 682/3/6 685/3/6
f 682/2/6 683/2/6 686/2/6
f 685/3/6 682/3/6 686/3/6
f 683/1/6 684/1/6 687/1/6
f 686/2/6 683/2/6 687/2/6
f 687/1/6 684/1/6 688/1/6
f 686/3/6 687/3/6 690/3/6
f 688/2/6 689/2/6 691/2/6
f 690/3/6 687/3/6 691/3/6
f 687/2/6 688/2/6 691/2/6
f 691/2/6 689/2/6 692/2/6
f 692/2/6 689/2/6 693/2/6
f 690/5/6 691/5/6 695/5/6
f 691/3/6 692/3/6 696/3/6
f 695/5/6 691/5/6 696/5/6
f 692/2/6 693/2/6 697/2/6
f 696/3/6 692/3/6 697/3/6
f 693/1/6 694/1/6 698/1/6
f 697/2/6 693/2/6 698/2/6
f 698/1/6 694/1/6 699/1/6
f 697/3/6 698/3/6 702/3/6
f 699/2/6 700/2/6 703/2/6
f 702/3/6 698/3/6 703/3/6
f 698/2/6 699/2/6 703/2/6
f 703/2/6 700/2/6 704/2/6
f 700/1/6 701/1/6 705/1/6
f 704/2/6 700/2/6 705/2/6
f 705/1/6 701/1/6 706/1/6
f 704/2/6 705/2/6 707/2/6
f 705/2/6 706/2/6 707/2/6
f 706/1/6 701/1/6 708/1/6
f 707/2/6 706/2/6 708/2/6
f 708/1/6 701/1/6 709/1/6
f 703/3/6 704/3/6 710/3/6
f 704/2/6 707/2/6 710/2/6
f 710/2/6 707/2/6 711/2/6
f 703/3/6 710/3/6 712/3/6
f 710/3/6 711/3/6 712/3/6
f 712/3/6 711/3/6 713/3/6
