# MagicaVoxel @ Ephtracy

# group
o 

# material
mtllib floor crack.mtl
usemtl palette

# normals
vn -1 0 0
vn 1 0 0
vn 0 0 1
vn 0 0 -1
vn 0 -1 0
vn 0 1 0

# texcoords
vt 0.962891 0.5
vt 0.966797 0.5
vt 0.974609 0.5
vt 0.978516 0.5

# verts
v -2 0 2
v -2 0 -2
v -2 0.1 2
v -2 0.1 -2
v 2 0 2
v 2 0 -2
v 2 0.1 2
v 2 0.1 -2
v -2 0 2
v -2 0.1 2
v 2 0 2
v 2 0.1 2
v -2 0 -2
v -2 0.1 -2
v 2 0 -2
v 2 0.1 -2
v -2 0 2
v 2 0 2
v -1.9 0 1.9
v -1.7 0 1.9
v 1.7 0 1.9
v 1.9 0 1.9
v -1.9 0 1.7
v -1.7 0 1.7
v -1.6 0 1.7
v 1.7 0 1.7
v 1.9 0 1.7
v -1.9 0 1.6
v -1.8 0 1.6
v -1.6 0 1.6
v -1.4 0 1.6
v -1.9 0 1.5
v -1.8 0 1.5
v -1.4 0 1.5
v -1.3 0 1.5
v -1.8 0 1.4
v -1.4 0 1.4
v -1.3 0 1.4
v -1.1 0 1.4
v -1.4 0 1.3
v -1.3 0 1.3
v -1.1 0 1.3
v -1 0 1.3
v -1.3 0 1.2
v -1.1 0 1.2
v -1 0 1.2
v -0.9 0 1.2
v -0.9 0 1.1
v -0.8 0 1.1
v -1.1 0 1
v -1 0 1
v -0.8 0 1
v -0.5 0 1
v -1 0 0.9
v -0.8 0 0.9
v -0.5 0 0.9
v -0.4 0 0.9
v -0.8 0 0.8
v -0.6 0 0.8
v -0.4 0 0.8
v -0.3 0 0.8
v -0.6 0 0.7
v -0.5 0 0.7
v -0.4 0 0.7
v -0.3 0 0.7
v -0.0999999 0 0.7
v -0.5 0 0.6
v -0.4 0 0.6
v -0.3 0 0.6
v -0.0999999 0 0.6
v 2.38419e-07 0 0.6
v -0.4 0 0.5
v -0.3 0 0.5
v 2.38419e-07 0 0.5
v 0.1 0 0.5
v -0.3 0 0.4
v 2.38419e-07 0 0.4
v 0.1 0 0.4
v 0.3 0 0.4
v 0.3 0 0.3
v 0.4 0 0.3
v 2.38419e-07 0 0.2
v 0.1 0 0.2
v 0.4 0 0.2
v 0.5 0 0.2
v 0.1 0 0.0999999
v 0.4 0 0.0999999
v 0.5 0 0.0999999
v 0.6 0 0.0999999
v 0.4 0 -2.38419e-07
v 0.5 0 -2.38419e-07
v 0.6 0 -2.38419e-07
v 0.7 0 -2.38419e-07
v 0.5 0 -0.1
v 0.6 0 -0.1
v 0.7 0 -0.1
v 0.8 0 -0.1
v 0.6 0 -0.2
v 0.7 0 -0.2
v 0.8 0 -0.2
v 1 0 -0.2
v 0.7 0 -0.4
v 0.8 0 -0.4
v 0.9 0 -0.4
v 0.8 0 -0.5
v 0.9 0 -0.5
v 1 0 -0.5
v 1.2 0 -0.5
v 0.9 0 -0.8
v 1 0 -0.8
v 1.1 0 -0.8
v 1 0 -0.9
v 1.1 0 -0.9
v 1.2 0 -0.9
v 1.3 0 -0.9
v 1.1 0 -1.1
v 1.2 0 -1.1
v 1.3 0 -1.1
v 1.4 0 -1.1
v 1.2 0 -1.2
v 1.3 0 -1.2
v 1.4 0 -1.2
v 1.6 0 -1.2
v 1.3 0 -1.3
v 1.4 0 -1.3
v 1.5 0 -1.3
v 1.4 0 -1.4
v 1.5 0 -1.4
v 1.6 0 -1.4
v 1.8 0 -1.4
v 1.7 0 -1.5
v 1.8 0 -1.5
v 1.9 0 -1.5
v 1.8 0 -1.6
v 1.9 0 -1.6
v -1.9 0 -1.7
v -1.7 0 -1.7
v 1.5 0 -1.7
v 1.6 0 -1.7
v 1.7 0 -1.7
v 1.9 0 -1.7
v 1.6 0 -1.8
v 1.7 0 -1.8
v -1.9 0 -1.9
v -1.7 0 -1.9
v 1.6 0 -1.9
v 1.7 0 -1.9
v 1.9 0 -1.9
v -2 0 -2
v 2 0 -2
v -2 0.1 2
v 2 0.1 2
v -1.9 0.1 1.9
v -1.7 0.1 1.9
v 1.7 0.1 1.9
v 1.9 0.1 1.9
v -1.9 0.1 1.7
v -1.7 0.1 1.7
v -1.6 0.1 1.7
v 1.7 0.1 1.7
v 1.9 0.1 1.7
v -1.9 0.1 1.6
v -1.8 0.1 1.6
v -1.6 0.1 1.6
v -1.4 0.1 1.6
v -1.9 0.1 1.5
v -1.8 0.1 1.5
v -1.4 0.1 1.5
v -1.3 0.1 1.5
v -1.8 0.1 1.4
v -1.4 0.1 1.4
v -1.3 0.1 1.4
v -1.1 0.1 1.4
v -1.4 0.1 1.3
v -1.3 0.1 1.3
v -1.1 0.1 1.3
v -1 0.1 1.3
v -1.3 0.1 1.2
v -1.1 0.1 1.2
v -1 0.1 1.2
v -0.9 0.1 1.2
v -0.9 0.1 1.1
v -0.8 0.1 1.1
v -1.1 0.1 1
v -1 0.1 1
v -0.8 0.1 1
v -0.5 0.1 1
v -1 0.1 0.9
v -0.8 0.1 0.9
v -0.5 0.1 0.9
v -0.4 0.1 0.9
v -0.8 0.1 0.8
v -0.6 0.1 0.8
v -0.4 0.1 0.8
v -0.3 0.1 0.8
v -0.6 0.1 0.7
v -0.5 0.1 0.7
v -0.4 0.1 0.7
v -0.3 0.1 0.7
v -0.0999999 0.1 0.7
v -0.5 0.1 0.6
v -0.4 0.1 0.6
v -0.3 0.1 0.6
v -0.0999999 0.1 0.6
v 2.38419e-07 0.1 0.6
v -0.4 0.1 0.5
v -0.3 0.1 0.5
v 2.38419e-07 0.1 0.5
v 0.1 0.1 0.5
v -0.3 0.1 0.4
v 2.38419e-07 0.1 0.4
v 0.1 0.1 0.4
v 0.3 0.1 0.4
v 0.3 0.1 0.3
v 0.4 0.1 0.3
v 2.38419e-07 0.1 0.2
v 0.1 0.1 0.2
v 0.4 0.1 0.2
v 0.5 0.1 0.2
v 0.1 0.1 0.0999999
v 0.4 0.1 0.0999999
v 0.5 0.1 0.0999999
v 0.6 0.1 0.0999999
v 0.4 0.1 -2.38419e-07
v 0.5 0.1 -2.38419e-07
v 0.6 0.1 -2.38419e-07
v 0.7 0.1 -2.38419e-07
v 0.5 0.1 -0.1
v 0.6 0.1 -0.1
v 0.7 0.1 -0.1
v 0.8 0.1 -0.1
v 0.6 0.1 -0.2
v 0.7 0.1 -0.2
v 0.8 0.1 -0.2
v 1 0.1 -0.2
v 0.7 0.1 -0.4
v 0.8 0.1 -0.4
v 0.9 0.1 -0.4
v 0.8 0.1 -0.5
v 0.9 0.1 -0.5
v 1 0.1 -0.5
v 1.2 0.1 -0.5
v 0.9 0.1 -0.8
v 1 0.1 -0.8
v 1.1 0.1 -0.8
v 1 0.1 -0.9
v 1.1 0.1 -0.9
v 1.2 0.1 -0.9
v 1.3 0.1 -0.9
v 1.1 0.1 -1.1
v 1.2 0.1 -1.1
v 1.3 0.1 -1.1
v 1.4 0.1 -1.1
v 1.2 0.1 -1.2
v 1.3 0.1 -1.2
v 1.4 0.1 -1.2
v 1.6 0.1 -1.2
v 1.3 0.1 -1.3
v 1.4 0.1 -1.3
v 1.5 0.1 -1.3
v 1.4 0.1 -1.4
v 1.5 0.1 -1.4
v 1.6 0.1 -1.4
v 1.8 0.1 -1.4
v 1.7 0.1 -1.5
v 1.8 0.1 -1.5
v 1.9 0.1 -1.5
v 1.8 0.1 -1.6
v 1.9 0.1 -1.6
v -1.9 0.1 -1.7
v -1.7 0.1 -1.7
v 1.5 0.1 -1.7
v 1.6 0.1 -1.7
v 1.7 0.1 -1.7
v 1.9 0.1 -1.7
v 1.6 0.1 -1.8
v 1.7 0.1 -1.8
v -1.9 0.1 -1.9
v -1.7 0.1 -1.9
v 1.6 0.1 -1.9
v 1.7 0.1 -1.9
v 1.9 0.1 -1.9
v -2 0.1 -2
v 2 0.1 -2

# faces
f 3/4/1 2/4/1 1/4/1
f 4/4/1 2/4/1 3/4/1
f 5/4/2 6/4/2 7/4/2
f 7/4/2 6/4/2 8/4/2
f 11/4/3 10/4/3 9/4/3
f 12/4/3 10/4/3 11/4/3
f 13/4/4 14/4/4 15/4/4
f 15/4/4 14/4/4 16/4/4
f 19/4/5 18/4/5 17/4/5
f 20/4/5 18/4/5 19/4/5
f 21/4/5 18/4/5 20/4/5
f 22/4/5 18/4/5 21/4/5
f 23/4/5 19/4/5 17/4/5
f 23/3/5 20/3/5 19/3/5
f 24/2/5 21/2/5 20/2/5
f 24/3/5 20/3/5 23/3/5
f 25/2/5 21/2/5 24/2/5
f 26/3/5 22/3/5 21/3/5
f 26/2/5 21/2/5 25/2/5
f 27/4/5 18/4/5 22/4/5
f 27/3/5 22/3/5 26/3/5
f 28/4/5 25/4/5 24/4/5
f 28/4/5 23/4/5 17/4/5
f 28/4/5 24/4/5 23/4/5
f 29/4/5 25/4/5 28/4/5
f 30/2/5 26/2/5 25/2/5
f 30/4/5 25/4/5 29/4/5
f 30/2/5 27/2/5 26/2/5
f 31/2/5 27/2/5 30/2/5
f 32/1/5 29/1/5 28/1/5
f 32/4/5 28/4/5 17/4/5
f 33/4/5 31/4/5 30/4/5
f 33/1/5 29/1/5 32/1/5
f 33/4/5 30/4/5 29/4/5
f 34/2/5 27/2/5 31/2/5
f 34/4/5 31/4/5 33/4/5
f 35/2/5 27/2/5 34/2/5
f 36/2/5 33/2/5 32/2/5
f 36/1/5 34/1/5 33/1/5
f 37/4/5 35/4/5 34/4/5
f 37/1/5 34/1/5 36/1/5
f 38/2/5 27/2/5 35/2/5
f 38/4/5 35/4/5 37/4/5
f 39/2/5 27/2/5 38/2/5
f 40/2/5 37/2/5 36/2/5
f 40/1/5 38/1/5 37/1/5
f 41/4/5 39/4/5 38/4/5
f 41/1/5 38/1/5 40/1/5
f 42/2/5 27/2/5 39/2/5
f 42/4/5 39/4/5 41/4/5
f 43/2/5 27/2/5 42/2/5
f 44/2/5 41/2/5 40/2/5
f 44/1/5 42/1/5 41/1/5
f 45/4/5 43/4/5 42/4/5
f 45/1/5 42/1/5 44/1/5
f 46/2/5 27/2/5 43/2/5
f 46/4/5 43/4/5 45/4/5
f 47/2/5 27/2/5 46/2/5
f 48/4/5 47/4/5 46/4/5
f 48/2/5 27/2/5 47/2/5
f 49/2/5 27/2/5 48/2/5
f 50/2/5 45/2/5 44/2/5
f 50/1/5 46/1/5 45/1/5
f 51/4/5 49/4/5 48/4/5
f 51/1/5 46/1/5 50/1/5
f 51/4/5 48/4/5 46/4/5
f 52/2/5 27/2/5 49/2/5
f 52/4/5 49/4/5 51/4/5
f 53/2/5 27/2/5 52/2/5
f 54/2/5 51/2/5 50/2/5
f 54/1/5 52/1/5 51/1/5
f 55/4/5 53/4/5 52/4/5
f 55/1/5 52/1/5 54/1/5
f 56/2/5 27/2/5 53/2/5
f 56/4/5 53/4/5 55/4/5
f 57/2/5 27/2/5 56/2/5
f 58/2/5 55/2/5 54/2/5
f 58/1/5 56/1/5 55/1/5
f 59/1/5 56/1/5 58/1/5
f 60/2/5 27/2/5 57/2/5
f 60/4/5 57/4/5 56/4/5
f 61/2/5 27/2/5 60/2/5
f 62/1/5 56/1/5 59/1/5
f 62/2/5 59/2/5 58/2/5
f 63/4/5 61/4/5 60/4/5
f 63/1/5 56/1/5 62/1/5
f 63/4/5 60/4/5 56/4/5
f 64/4/5 61/4/5 63/4/5
f 65/2/5 27/2/5 61/2/5
f 65/4/5 61/4/5 64/4/5
f 66/2/5 27/2/5 65/2/5
f 67/1/5 64/1/5 63/1/5
f 67/2/5 63/2/5 62/2/5
f 68/4/5 66/4/5 65/4/5
f 68/1/5 64/1/5 67/1/5
f 68/4/5 65/4/5 64/4/5
f 69/4/5 66/4/5 68/4/5
f 70/2/5 27/2/5 66/2/5
f 70/4/5 66/4/5 69/4/5
f 71/2/5 27/2/5 70/2/5
f 72/1/5 69/1/5 68/1/5
f 72/2/5 68/2/5 67/2/5
f 73/4/5 71/4/5 70/4/5
f 73/1/5 69/1/5 72/1/5
f 73/4/5 70/4/5 69/4/5
f 74/2/5 27/2/5 71/2/5
f 74/4/5 71/4/5 73/4/5
f 75/2/5 27/2/5 74/2/5
f 76/2/5 73/2/5 72/2/5
f 76/1/5 74/1/5 73/1/5
f 77/4/5 75/4/5 74/4/5
f 77/1/5 74/1/5 76/1/5
f 78/2/5 27/2/5 75/2/5
f 78/4/5 75/4/5 77/4/5
f 79/2/5 27/2/5 78/2/5
f 80/4/5 79/4/5 78/4/5
f 80/2/5 27/2/5 79/2/5
f 81/2/5 27/2/5 80/2/5
f 82/2/5 77/2/5 76/2/5
f 82/1/5 78/1/5 77/1/5
f 83/4/5 81/4/5 80/4/5
f 83/1/5 78/1/5 82/1/5
f 83/4/5 80/4/5 78/4/5
f 84/2/5 27/2/5 81/2/5
f 84/4/5 81/4/5 83/4/5
f 85/2/5 27/2/5 84/2/5
f 86/2/5 83/2/5 82/2/5
f 86/1/5 84/1/5 83/1/5
f 87/4/5 85/4/5 84/4/5
f 87/1/5 84/1/5 86/1/5
f 88/2/5 27/2/5 85/2/5
f 88/4/5 85/4/5 87/4/5
f 89/2/5 27/2/5 88/2/5
f 90/2/5 87/2/5 86/2/5
f 90/1/5 88/1/5 87/1/5
f 91/4/5 89/4/5 88/4/5
f 91/1/5 88/1/5 90/1/5
f 92/2/5 27/2/5 89/2/5
f 92/4/5 89/4/5 91/4/5
f 93/2/5 27/2/5 92/2/5
f 94/2/5 91/2/5 90/2/5
f 94/1/5 92/1/5 91/1/5
f 95/4/5 93/4/5 92/4/5
f 95/1/5 92/1/5 94/1/5
f 96/2/5 27/2/5 93/2/5
f 96/4/5 93/4/5 95/4/5
f 97/2/5 27/2/5 96/2/5
f 98/2/5 95/2/5 94/2/5
f 98/1/5 96/1/5 95/1/5
f 99/4/5 97/4/5 96/4/5
f 99/1/5 96/1/5 98/1/5
f 100/2/5 27/2/5 97/2/5
f 100/4/5 97/4/5 99/4/5
f 101/2/5 27/2/5 100/2/5
f 102/2/5 99/2/5 98/2/5
f 102/1/5 100/1/5 99/1/5
f 103/4/5 101/4/5 100/4/5
f 103/1/5 100/1/5 102/1/5
f 104/4/5 101/4/5 103/4/5
f 105/2/5 103/2/5 102/2/5
f 105/1/5 104/1/5 103/1/5
f 106/4/5 101/4/5 104/4/5
f 106/1/5 104/1/5 105/1/5
f 107/2/5 27/2/5 101/2/5
f 107/4/5 101/4/5 106/4/5
f 108/2/5 27/2/5 107/2/5
f 109/2/5 106/2/5 105/2/5
f 109/1/5 107/1/5 106/1/5
f 110/4/5 108/4/5 107/4/5
f 110/1/5 107/1/5 109/1/5
f 111/4/5 108/4/5 110/4/5
f 112/2/5 110/2/5 109/2/5
f 112/1/5 111/1/5 110/1/5
f 113/4/5 108/4/5 111/4/5
f 113/1/5 111/1/5 112/1/5
f 114/2/5 27/2/5 108/2/5
f 114/4/5 108/4/5 113/4/5
f 115/2/5 27/2/5 114/2/5
f 116/2/5 113/2/5 112/2/5
f 116/1/5 114/1/5 113/1/5
f 117/4/5 115/4/5 114/4/5
f 117/1/5 114/1/5 116/1/5
f 118/2/5 27/2/5 115/2/5
f 118/4/5 115/4/5 117/4/5
f 119/2/5 27/2/5 118/2/5
f 120/2/5 117/2/5 116/2/5
f 120/1/5 118/1/5 117/1/5
f 121/4/5 119/4/5 118/4/5
f 121/1/5 118/1/5 120/1/5
f 122/2/5 27/2/5 119/2/5
f 122/4/5 119/4/5 121/4/5
f 123/2/5 27/2/5 122/2/5
f 124/2/5 121/2/5 120/2/5
f 124/1/5 122/1/5 121/1/5
f 125/4/5 123/4/5 122/4/5
f 125/1/5 122/1/5 124/1/5
f 126/4/5 123/4/5 125/4/5
f 127/2/5 125/2/5 124/2/5
f 127/1/5 126/1/5 125/1/5
f 128/4/5 123/4/5 126/4/5
f 128/1/5 126/1/5 127/1/5
f 129/2/5 27/2/5 123/2/5
f 129/4/5 123/4/5 128/4/5
f 130/2/5 27/2/5 129/2/5
f 131/4/5 130/4/5 129/4/5
f 132/2/5 27/2/5 130/2/5
f 132/4/5 130/4/5 131/4/5
f 133/4/5 18/4/5 27/4/5
f 133/2/5 27/2/5 132/2/5
f 134/2/5 132/2/5 131/2/5
f 134/4/5 133/4/5 132/4/5
f 135/4/5 18/4/5 133/4/5
f 135/4/5 133/4/5 134/4/5
f 136/2/5 128/2/5 127/2/5
f 136/4/5 32/4/5 17/4/5
f 136/2/5 36/2/5 32/2/5
f 136/2/5 40/2/5 36/2/5
f 136/2/5 44/2/5 40/2/5
f 136/2/5 127/2/5 124/2/5
f 136/2/5 124/2/5 120/2/5
f 136/2/5 120/2/5 116/2/5
f 136/2/5 116/2/5 112/2/5
f 136/2/5 112/2/5 109/2/5
f 136/2/5 109/2/5 105/2/5
f 136/2/5 105/2/5 102/2/5
f 136/2/5 102/2/5 98/2/5
f 136/2/5 98/2/5 94/2/5
f 136/2/5 94/2/5 90/2/5
f 136/2/5 90/2/5 86/2/5
f 136/2/5 86/2/5 82/2/5
f 136/2/5 82/2/5 76/2/5
f 136/2/5 76/2/5 72/2/5
f 136/2/5 72/2/5 67/2/5
f 136/2/5 67/2/5 62/2/5
f 136/2/5 58/2/5 54/2/5
f 136/2/5 62/2/5 58/2/5
f 136/2/5 54/2/5 50/2/5
f 136/2/5 50/2/5 44/2/5
f 137/2/5 128/2/5 136/2/5
f 138/1/5 129/1/5 128/1/5
f 138/2/5 128/2/5 137/2/5
f 139/4/5 131/4/5 129/4/5
f 139/1/5 129/1/5 138/1/5
f 140/2/5 134/2/5 131/2/5
f 140/4/5 131/4/5 139/4/5
f 140/2/5 135/2/5 134/2/5
f 141/4/5 18/4/5 135/4/5
f 141/2/5 135/2/5 140/2/5
f 142/1/5 140/1/5 139/1/5
f 142/2/5 139/2/5 138/2/5
f 142/2/5 138/2/5 137/2/5
f 143/3/5 141/3/5 140/3/5
f 143/1/5 140/1/5 142/1/5
f 144/4/5 136/4/5 17/4/5
f 144/3/5 137/3/5 136/3/5
f 145/2/5 142/2/5 137/2/5
f 145/3/5 137/3/5 144/3/5
f 146/4/5 143/4/5 142/4/5
f 146/2/5 142/2/5 145/2/5
f 147/3/5 141/3/5 143/3/5
f 147/4/5 143/4/5 146/4/5
f 148/4/5 18/4/5 141/4/5
f 148/3/5 141/3/5 147/3/5
f 149/4/5 147/4/5 146/4/5
f 149/4/5 144/4/5 17/4/5
f 149/4/5 148/4/5 147/4/5
f 149/4/5 145/4/5 144/4/5
f 149/4/5 146/4/5 145/4/5
f 150/4/5 18/4/5 148/4/5
f 150/4/5 148/4/5 149/4/5
f 151/4/6 152/4/6 153/4/6
f 153/4/6 152/4/6 154/4/6
f 154/4/6 152/4/6 155/4/6
f 155/4/6 152/4/6 156/4/6
f 151/4/6 153/4/6 157/4/6
f 153/3/6 154/3/6 157/3/6
f 154/2/6 155/2/6 158/2/6
f 157/3/6 154/3/6 158/3/6
f 158/2/6 155/2/6 159/2/6
f 155/3/6 156/3/6 160/3/6
f 159/2/6 155/2/6 160/2/6
f 156/4/6 152/4/6 161/4/6
f 160/3/6 156/3/6 161/3/6
f 158/4/6 159/4/6 162/4/6
f 151/4/6 157/4/6 162/4/6
f 157/4/6 158/4/6 162/4/6
f 162/4/6 159/4/6 163/4/6
f 159/2/6 160/2/6 164/2/6
f 163/4/6 159/4/6 164/4/6
f 160/2/6 161/2/6 164/2/6
f 164/2/6 161/2/6 165/2/6
f 162/1/6 163/1/6 166/1/6
f 151/4/6 162/4/6 166/4/6
f 164/4/6 165/4/6 167/4/6
f 166/1/6 163/1/6 167/1/6
f 163/4/6 164/4/6 167/4/6
f 165/2/6 161/2/6 168/2/6
f 167/4/6 165/4/6 168/4/6
f 168/2/6 161/2/6 169/2/6
f 166/2/6 167/2/6 170/2/6
f 167/1/6 168/1/6 170/1/6
f 168/4/6 169/4/6 171/4/6
f 170/1/6 168/1/6 171/1/6
f 169/2/6 161/2/6 172/2/6
f 171/4/6 169/4/6 172/4/6
f 172/2/6 161/2/6 173/2/6
f 170/2/6 171/2/6 174/2/6
f 171/1/6 172/1/6 174/1/6
f 172/4/6 173/4/6 175/4/6
f 174/1/6 172/1/6 175/1/6
f 173/2/6 161/2/6 176/2/6
f 175/4/6 173/4/6 176/4/6
f 176/2/6 161/2/6 177/2/6
f 174/2/6 175/2/6 178/2/6
f 175/1/6 176/1/6 178/1/6
f 176/4/6 177/4/6 179/4/6
f 178/1/6 176/1/6 179/1/6
f 177/2/6 161/2/6 180/2/6
f 179/4/6 177/4/6 180/4/6
f 180/2/6 161/2/6 181/2/6
f 180/4/6 181/4/6 182/4/6
f 181/2/6 161/2/6 182/2/6
f 182/2/6 161/2/6 183/2/6
f 178/2/6 179/2/6 184/2/6
f 179/1/6 180/1/6 184/1/6
f 182/4/6 183/4/6 185/4/6
f 184/1/6 180/1/6 185/1/6
f 180/4/6 182/4/6 185/4/6
f 183/2/6 161/2/6 186/2/6
f 185/4/6 183/4/6 186/4/6
f 186/2/6 161/2/6 187/2/6
f 184/2/6 185/2/6 188/2/6
f 185/1/6 186/1/6 188/1/6
f 186/4/6 187/4/6 189/4/6
f 188/1/6 186/1/6 189/1/6
f 187/2/6 161/2/6 190/2/6
f 189/4/6 187/4/6 190/4/6
f 190/2/6 161/2/6 191/2/6
f 188/2/6 189/2/6 192/2/6
f 189/1/6 190/1/6 192/1/6
f 192/1/6 190/1/6 193/1/6
f 191/2/6 161/2/6 194/2/6
f 190/4/6 191/4/6 194/4/6
f 194/2/6 161/2/6 195/2/6
f 193/1/6 190/1/6 196/1/6
f 192/2/6 193/2/6 196/2/6
f 194/4/6 195/4/6 197/4/6
f 196/1/6 190/1/6 197/1/6
f 190/4/6 194/4/6 197/4/6
f 197/4/6 195/4/6 198/4/6
f 195/2/6 161/2/6 199/2/6
f 198/4/6 195/4/6 199/4/6
f 199/2/6 161/2/6 200/2/6
f 197/1/6 198/1/6 201/1/6
f 196/2/6 197/2/6 201/2/6
f 199/4/6 200/4/6 202/4/6
f 201/1/6 198/1/6 202/1/6
f 198/4/6 199/4/6 202/4/6
f 202/4/6 200/4/6 203/4/6
f 200/2/6 161/2/6 204/2/6
f 203/4/6 200/4/6 204/4/6
f 204/2/6 161/2/6 205/2/6
f 202/1/6 203/1/6 206/1/6
f 201/2/6 202/2/6 206/2/6
f 204/4/6 205/4/6 207/4/6
f 206/1/6 203/1/6 207/1/6
f 203/4/6 204/4/6 207/4/6
f 205/2/6 161/2/6 208/2/6
f 207/4/6 205/4/6 208/4/6
f 208/2/6 161/2/6 209/2/6
f 206/2/6 207/2/6 210/2/6
f 207/1/6 208/1/6 210/1/6
f 208/4/6 209/4/6 211/4/6
f 210/1/6 208/1/6 211/1/6
f 209/2/6 161/2/6 212/2/6
f 211/4/6 209/4/6 212/4/6
f 212/2/6 161/2/6 213/2/6
f 212/4/6 213/4/6 214/4/6
f 213/2/6 161/2/6 214/2/6
f 214/2/6 161/2/6 215/2/6
f 210/2/6 211/2/6 216/2/6
f 211/1/6 212/1/6 216/1/6
f 214/4/6 215/4/6 217/4/6
f 216/1/6 212/1/6 217/1/6
f 212/4/6 214/4/6 217/4/6
f 215/2/6 161/2/6 218/2/6
f 217/4/6 215/4/6 218/4/6
f 218/2/6 161/2/6 219/2/6
f 216/2/6 217/2/6 220/2/6
f 217/1/6 218/1/6 220/1/6
f 218/4/6 219/4/6 221/4/6
f 220/1/6 218/1/6 221/1/6
f 219/2/6 161/2/6 222/2/6
f 221/4/6 219/4/6 222/4/6
f 222/2/6 161/2/6 223/2/6
f 220/2/6 221/2/6 224/2/6
f 221/1/6 222/1/6 224/1/6
f 222/4/6 223/4/6 225/4/6
f 224/1/6 222/1/6 225/1/6
f 223/2/6 161/2/6 226/2/6
f 225/4/6 223/4/6 226/4/6
f 226/2/6 161/2/6 227/2/6
f 224/2/6 225/2/6 228/2/6
f 225/1/6 226/1/6 228/1/6
f 226/4/6 227/4/6 229/4/6
f 228/1/6 226/1/6 229/1/6
f 227/2/6 161/2/6 230/2/6
f 229/4/6 227/4/6 230/4/6
f 230/2/6 161/2/6 231/2/6
f 228/2/6 229/2/6 232/2/6
f 229/1/6 230/1/6 232/1/6
f 230/4/6 231/4/6 233/4/6
f 232/1/6 230/1/6 233/1/6
f 231/2/6 161/2/6 234/2/6
f 233/4/6 231/4/6 234/4/6
f 234/2/6 161/2/6 235/2/6
f 232/2/6 233/2/6 236/2/6
f 233/1/6 234/1/6 236/1/6
f 234/4/6 235/4/6 237/4/6
f 236/1/6 234/1/6 237/1/6
f 237/4/6 235/4/6 238/4/6
f 236/2/6 237/2/6 239/2/6
f 237/1/6 238/1/6 239/1/6
f 238/4/6 235/4/6 240/4/6
f 239/1/6 238/1/6 240/1/6
f 235/2/6 161/2/6 241/2/6
f 240/4/6 235/4/6 241/4/6
f 241/2/6 161/2/6 242/2/6
f 239/2/6 240/2/6 243/2/6
f 240/1/6 241/1/6 243/1/6
f 241/4/6 242/4/6 244/4/6
f 243/1/6 241/1/6 244/1/6
f 244/4/6 242/4/6 245/4/6
f 243/2/6 244/2/6 246/2/6
f 244/1/6 245/1/6 246/1/6
f 245/4/6 242/4/6 247/4/6
f 246/1/6 245/1/6 247/1/6
f 242/2/6 161/2/6 248/2/6
f 247/4/6 242/4/6 248/4/6
f 248/2/6 161/2/6 249/2/6
f 246/2/6 247/2/6 250/2/6
f 247/1/6 248/1/6 250/1/6
f 248/4/6 249/4/6 251/4/6
f 250/1/6 248/1/6 251/1/6
f 249/2/6 161/2/6 252/2/6
f 251/4/6 249/4/6 252/4/6
f 252/2/6 161/2/6 253/2/6
f 250/2/6 251/2/6 254/2/6
f 251/1/6 252/1/6 254/1/6
f 252/4/6 253/4/6 255/4/6
f 254/1/6 252/1/6 255/1/6
f 253/2/6 161/2/6 256/2/6
f 255/4/6 253/4/6 256/4/6
f 256/2/6 161/2/6 257/2/6
f 254/2/6 255/2/6 258/2/6
f 255/1/6 256/1/6 258/1/6
f 256/4/6 257/4/6 259/4/6
f 258/1/6 256/1/6 259/1/6
f 259/4/6 257/4/6 260/4/6
f 258/2/6 259/2/6 261/2/6
f 259/1/6 260/1/6 261/1/6
f 260/4/6 257/4/6 262/4/6
f 261/1/6 260/1/6 262/1/6
f 257/2/6 161/2/6 263/2/6
f 262/4/6 257/4/6 263/4/6
f 263/2/6 161/2/6 264/2/6
f 263/4/6 264/4/6 265/4/6
f 264/2/6 161/2/6 266/2/6
f 265/4/6 264/4/6 266/4/6
f 161/4/6 152/4/6 267/4/6
f 266/2/6 161/2/6 267/2/6
f 265/2/6 266/2/6 268/2/6
f 266/4/6 267/4/6 268/4/6
f 267/4/6 152/4/6 269/4/6
f 268/4/6 267/4/6 269/4/6
f 261/2/6 262/2/6 270/2/6
f 151/4/6 166/4/6 270/4/6
f 166/2/6 170/2/6 270/2/6
f 170/2/6 174/2/6 270/2/6
f 174/2/6 178/2/6 270/2/6
f 258/2/6 261/2/6 270/2/6
f 254/2/6 258/2/6 270/2/6
f 250/2/6 254/2/6 270/2/6
f 246/2/6 250/2/6 270/2/6
f 243/2/6 246/2/6 270/2/6
f 239/2/6 243/2/6 270/2/6
f 236/2/6 239/2/6 270/2/6
f 232/2/6 236/2/6 270/2/6
f 228/2/6 232/2/6 270/2/6
f 224/2/6 228/2/6 270/2/6
f 220/2/6 224/2/6 270/2/6
f 216/2/6 220/2/6 270/2/6
f 210/2/6 216/2/6 270/2/6
f 206/2/6 210/2/6 270/2/6
f 201/2/6 206/2/6 270/2/6
f 196/2/6 201/2/6 270/2/6
f 188/2/6 192/2/6 270/2/6
f 192/2/6 196/2/6 270/2/6
f 184/2/6 188/2/6 270/2/6
f 178/2/6 184/2/6 270/2/6
f 270/2/6 262/2/6 271/2/6
f 262/1/6 263/1/6 272/1/6
f 271/2/6 262/2/6 272/2/6
f 263/4/6 265/4/6 273/4/6
f 272/1/6 263/1/6 273/1/6
f 265/2/6 268/2/6 274/2/6
f 273/4/6 265/4/6 274/4/6
f 268/2/6 269/2/6 274/2/6
f 269/4/6 152/4/6 275/4/6
f 274/2/6 269/2/6 275/2/6
f 273/1/6 274/1/6 276/1/6
f 272/2/6 273/2/6 276/2/6
f 271/2/6 272/2/6 276/2/6
f 274/3/6 275/3/6 277/3/6
f 276/1/6 274/1/6 277/1/6
f 151/4/6 270/4/6 278/4/6
f 270/3/6 271/3/6 278/3/6
f 271/2/6 276/2/6 279/2/6
f 278/3/6 271/3/6 279/3/6
f 276/4/6 277/4/6 280/4/6
f 279/2/6 276/2/6 280/2/6
f 277/3/6 275/3/6 281/3/6
f 280/4/6 277/4/6 281/4/6
f 275/4/6 152/4/6 282/4/6
f 281/3/6 275/3/6 282/3/6
f 280/4/6 281/4/6 283/4/6
f 151/4/6 278/4/6 283/4/6
f 281/4/6 282/4/6 283/4/6
f 278/4/6 279/4/6 283/4/6
f 279/4/6 280/4/6 283/4/6
f 282/4/6 152/4/6 284/4/6
f 283/4/6 282/4/6 284/4/6
